# xmcd
#
# Track frame offsets:
#	150
#	5580
#	23482
#	62515
#	90297
#	114689
#	132663
#	157537
#
# Disc length: 2174 seconds
#
# Revision: 2
# Processed by: cddbd v1.5.2PL0 Copyright (c) Steve Scherf et al.
# Submitted via: EZCDDA 4.3.2
#
DISCID=52087c08
DTITLE=Kromlek - Stranger Rumours...
DYEAR=1900
DGENRE=
TTITLE0=Valtivar - Sigtivar
TTITLE1=Herjan
TTITLE2=Grim Omens
TTITLE3=Harvest
TTITLE4=Strandhagg Pt. I
TTITLE5=Strandhagg Pt. II
TTITLE6=Strandhagg Pt. III
TTITLE7=Svart Metall (Bonus)
EXTD=
EXTT0=
EXTT1=
EXTT2=
EXTT3=
EXTT4=
EXTT5=
EXTT6=
EXTT7=
PLAYORDER=
